<svg xmlns="http://www.w3.org/2000/svg" viewBox="0 0 223.11 213.47"><title>&#x8D44;&#x6E90; 12</title><path d="M79.27 0c14.17-.1 12.68-.69 18 12.12 3.9 9.55 7.73 19.1 11.73 28.61.47 1.13.6 2.82 2.31 2.91 2 .1 2.17-1.71 2.72-3Q120.82 24 127.64 7.43C130.37.78 131.47 0 138.84 0c4.33 0 8.66-.08 13 0 5.78.15 8.34 4 5.75 9-8.72 17-17.25 34.11-26.57 50.78-8.64 15.43-30.89 15-39.37-.52-9-16.48-17.45-33.24-26-49.93C62.83 4 65.23.22 71.28.05 73.94 0 76.6 0 79.27 0zM77.22 126.12c14.71 0 25.65 12.15 23.73 25.47-2.66 18.44-5.61 36.84-8.54 55.24-1.06 6.63-5.14 8.22-10.64 4.3-3.8-2.7-7.46-5.59-11.3-8.23-3.68-2.52-4.6-5.73-3.52-10 3.1-12.08 6-24.2 9-36.31.34-1.37 1.37-2.93-.27-4.1s-2.84.31-4 1c-10.55 6.36-21.1 12.7-31.53 19.24-4.1 2.57-7.65 2.47-11.41-.55s-7.83-5.65-11.58-8.68c-4.25-3.43-3.85-7.88 1.05-10.33q25.67-12.81 51.47-25.33a19.72 19.72 0 0 1 7.54-1.72zM81.56 86c0 11.88-7.71 21.36-18.87 23.35-18.18 3.24-36.4 6.21-54.62 9.2-6.51 1.08-9.44-2.45-7.46-8.77 1.39-4.44 3-8.82 4.22-13.29 1.34-4.8 4.58-6.45 9.24-6.75 11.79-.76 23.56-1.71 35.34-2.65 1.74-.13 4.13.42 4.89-1.59.83-2.21-1.66-3-2.94-4.09-9-7.69-18-15.38-27.13-22.84-4-3.29-5.38-6.81-3.39-11.78 1.72-4.31 2.83-8.86 4.42-13.23 2-5.38 6.3-6.4 10.39-2.33q19.64 19.61 39.08 39.38A22.82 22.82 0 0 1 81.56 86z" fill="#2a77ef"/><path d="M121.82 149.28c.25-16.71 17.49-28.11 32-21.37 17.2 8 34.11 16.57 51.08 25 5.07 2.53 5.55 7.18 1.2 10.76-3.73 3.06-7.81 5.67-11.57 8.69s-7.4 3.05-11.45.52c-10-6.24-20.13-12.35-30.26-18.43-1.59-.95-3.28-3.18-5.23-1.76s-.2 3.77.21 5.54c2.67 11.32 5.45 22.62 8.43 33.86 1.33 5 .24 8.69-4.18 11.57-3.76 2.45-7.26 5.3-10.92 7.89-5 3.53-9.27 2-10.26-3.93-2.57-15.57-4.89-31.17-7.3-46.77-.57-4.07-1.23-8.17-1.75-11.57zM141.78 86.63c0-6.52 2.74-11.92 7.22-16.46Q167.93 51 187 31.88c4.77-4.77 8.92-3.84 11.17 2.51 1.6 4.55 2.81 9.23 4.46 13.76 1.49 4.07.26 7.06-2.88 9.68q-13.58 11.37-27.11 22.79c-.64.53-1.35 1-1.94 1.56-.94.9-2.31 1.7-1.93 3.25.41 1.73 2.06 1.41 3.31 1.53 6.45.62 12.9 1.23 19.35 1.73 6.13.48 12.27.84 18.41 1.2 4.11.24 6.91 2.16 8.2 6.11 1.5 4.58 3 9.17 4.44 13.77 2 6.35-.8 9.72-7.45 8.73-8.54-1.28-17-2.81-25.56-4.25-9.16-1.54-18.32-3.2-27.5-4.64-11.91-1.87-20.22-11.23-20.19-22.98z" fill="#27cdaf"/></svg>